<?xml version="1.0" encoding="UTF-8" standalone="no"?><!DOCTYPE svg PUBLIC "-//W3C//DTD SVG 1.1//EN" "http://www.w3.org/Graphics/SVG/1.1/DTD/svg11.dtd"><svg width="100%" height="100%" viewBox="0 0 2000 2000" version="1.1" xmlns="http://www.w3.org/2000/svg" xmlns:xlink="http://www.w3.org/1999/xlink" xml:space="preserve" xmlns:serif="http://www.serif.com/" style="fill-rule:evenodd;clip-rule:evenodd;stroke-linejoin:round;stroke-miterlimit:1.41421;"><g id="Vector"><path id="N" d="M34.136,1635.07l333.557,0l1.001,-600.864l598.805,600.864l136.939,0l0,-1270.14l-334.026,0l2.075,599.414l-602.857,-599.414l-135.494,0l0,1270.14Z"/><path d="M1595.6,1635.07l-491.162,0l0,-1270.14l443.235,0c122.541,0.949 354.451,126.509 356.571,379.627c0.603,71.928 -32.377,160.018 -82.473,225.977c69.296,58.632 140.438,154.532 143.949,277.342c5.652,197.767 -154.819,384.235 -370.12,387.192Zm-294.449,-494.68c0,0 220.891,-0.239 230.728,0.025c47.936,1.289 102.041,51.486 101.692,108.426c-0.386,63.055 -47.795,110.778 -102.695,111.45l-229.497,0.378l-0.228,-220.279Zm0,-500.247c0,0 163.481,0.791 164.981,0.823c51.846,1.122 106.024,49.224 105.675,104.236c-0.4,63.054 -45.029,115.181 -105.675,116.383l-164.753,-1.163l-0.228,-220.279Z" style="fill:#17b5ea;"/></g></svg>