<?xml version="1.0" encoding="UTF-8" standalone="no"?><!DOCTYPE svg PUBLIC "-//W3C//DTD SVG 1.1//EN" "http://www.w3.org/Graphics/SVG/1.1/DTD/svg11.dtd"><svg width="100%" height="100%" viewBox="0 0 2000 2000" version="1.1" xmlns="http://www.w3.org/2000/svg" xmlns:xlink="http://www.w3.org/1999/xlink" xml:space="preserve" xmlns:serif="http://www.serif.com/" style="fill-rule:evenodd;clip-rule:evenodd;stroke-linejoin:round;stroke-miterlimit:1.41421;"><path d="M2000,489.46c0,-270.14 -219.32,-489.46 -489.46,-489.46l-1021.08,0c-270.14,0 -489.46,219.32 -489.46,489.46l0,1021.08c0,270.14 219.32,489.46 489.46,489.46l1021.08,0c270.14,0 489.46,-219.32 489.46,-489.46l0,-1021.08Z" style="fill:#f9f9f9;"/><g id="Vector"><path id="N" d="M153.588,1565.73l297.139,0l0.893,-535.261l533.427,535.261l121.989,0l0,-1131.46l-297.558,0l1.849,533.969l-537.037,-533.969l-120.702,0l0,1131.46Z"/><path d="M1544.57,1565.73l-437.537,0l0,-1131.46l394.842,0c109.163,0.845 315.753,112.696 317.642,338.179c0.536,64.075 -28.843,142.547 -73.469,201.305c61.73,52.23 125.105,137.66 128.232,247.062c5.035,176.175 -137.916,342.285 -329.71,344.918Zm-262.302,-440.67c0,0 196.775,-0.214 205.538,0.022c42.702,1.148 90.9,45.865 90.589,96.588c-0.344,56.17 -42.577,98.683 -91.482,99.282l-204.442,0.336l-0.203,-196.228Zm0,-445.631c0,0 145.633,0.704 146.969,0.733c46.186,1 94.449,43.85 94.138,92.856c-0.357,56.17 -40.113,102.606 -94.138,103.676l-146.766,-1.036l-0.203,-196.229Z" style="fill:#17b5ea;"/></g></svg>